<svg width="45" height="45" viewBox="0 0 45 45" fill="none" xmlns="http://www.w3.org/2000/svg">
<g clip-path="url(#clip0_1073_189)">
<path d="M35.625 1.875H9.375C6.88951 1.87798 4.50667 2.86665 2.74916 4.62416C0.991654 6.38167 0.00297723 8.76451 0 11.25L0 33.75C0.00297723 36.2355 0.991654 38.6183 2.74916 40.3758C4.50667 42.1333 6.88951 43.122 9.375 43.125H35.625C38.1105 43.122 40.4933 42.1333 42.2508 40.3758C44.0083 38.6183 44.997 36.2355 45 33.75V11.25C44.997 8.76451 44.0083 6.38167 42.2508 4.62416C40.4933 2.86665 38.1105 1.87798 35.625 1.875ZM9.375 5.625H35.625C37.1168 5.625 38.5476 6.21763 39.6025 7.27252C40.6574 8.32742 41.25 9.75816 41.25 11.25V13.125H3.75V11.25C3.75 9.75816 4.34263 8.32742 5.39752 7.27252C6.45242 6.21763 7.88316 5.625 9.375 5.625ZM35.625 39.375H9.375C7.88316 39.375 6.45242 38.7824 5.39752 37.7275C4.34263 36.6726 3.75 35.2418 3.75 33.75V16.875H41.25V33.75C41.25 35.2418 40.6574 36.6726 39.6025 37.7275C38.5476 38.7824 37.1168 39.375 35.625 39.375ZM35.625 24.375C35.625 24.8723 35.4275 25.3492 35.0758 25.7008C34.7242 26.0525 34.2473 26.25 33.75 26.25H11.25C10.7527 26.25 10.2758 26.0525 9.92418 25.7008C9.57254 25.3492 9.375 24.8723 9.375 24.375C9.375 23.8777 9.57254 23.4008 9.92418 23.0492C10.2758 22.6975 10.7527 22.5 11.25 22.5H33.75C34.2473 22.5 34.7242 22.6975 35.0758 23.0492C35.4275 23.4008 35.625 23.8777 35.625 24.375ZM28.125 31.875C28.125 32.3723 27.9275 32.8492 27.5758 33.2008C27.2242 33.5525 26.7473 33.75 26.25 33.75H11.25C10.7527 33.75 10.2758 33.5525 9.92418 33.2008C9.57254 32.8492 9.375 32.3723 9.375 31.875C9.375 31.3777 9.57254 30.9008 9.92418 30.5492C10.2758 30.1975 10.7527 30 11.25 30H26.25C26.7473 30 27.2242 30.1975 27.5758 30.5492C27.9275 30.9008 28.125 31.3777 28.125 31.875ZM5.625 9.375C5.625 9.00416 5.73497 8.64165 5.94099 8.33331C6.14702 8.02496 6.43986 7.78464 6.78247 7.64273C7.12508 7.50081 7.50208 7.46368 7.86579 7.53603C8.22951 7.60837 8.5636 7.78695 8.82582 8.04918C9.08805 8.3114 9.26663 8.64549 9.33897 9.00921C9.41132 9.37292 9.37419 9.74992 9.23227 10.0925C9.09036 10.4351 8.85004 10.728 8.54169 10.934C8.23335 11.14 7.87084 11.25 7.5 11.25C7.00272 11.25 6.52581 11.0525 6.17417 10.7008C5.82254 10.3492 5.625 9.87228 5.625 9.375ZM11.25 9.375C11.25 9.00416 11.36 8.64165 11.566 8.33331C11.772 8.02496 12.0649 7.78464 12.4075 7.64273C12.7501 7.50081 13.1271 7.46368 13.4908 7.53603C13.8545 7.60837 14.1886 7.78695 14.4508 8.04918C14.713 8.3114 14.8916 8.64549 14.964 9.00921C15.0363 9.37292 14.9992 9.74992 14.8573 10.0925C14.7154 10.4351 14.475 10.728 14.1667 10.934C13.8584 11.14 13.4958 11.25 13.125 11.25C12.6277 11.25 12.1508 11.0525 11.7992 10.7008C11.4475 10.3492 11.25 9.87228 11.25 9.375ZM16.875 9.375C16.875 9.00416 16.985 8.64165 17.191 8.33331C17.397 8.02496 17.6899 7.78464 18.0325 7.64273C18.3751 7.50081 18.7521 7.46368 19.1158 7.53603C19.4795 7.60837 19.8136 7.78695 20.0758 8.04918C20.338 8.3114 20.5166 8.64549 20.589 9.00921C20.6613 9.37292 20.6242 9.74992 20.4823 10.0925C20.3404 10.4351 20.1 10.728 19.7917 10.934C19.4834 11.14 19.1208 11.25 18.75 11.25C18.2527 11.25 17.7758 11.0525 17.4242 10.7008C17.0725 10.3492 16.875 9.87228 16.875 9.375Z" fill="white"/>
</g>
<defs>
<clipPath id="clip0_1073_189">
<rect width="45" height="45" fill="white"/>
</clipPath>
</defs>
</svg>
