<svg width="45" height="45" viewBox="0 0 45 45" fill="none" xmlns="http://www.w3.org/2000/svg">
<g clip-path="url(#clip0_1073_187)">
<path d="M13.125 26.25C17.2687 26.25 20.625 22.8937 20.625 18.75C20.625 14.6062 17.2687 11.25 13.125 11.25C8.98125 11.25 5.625 14.6062 5.625 18.75C5.625 22.8937 8.98125 26.25 13.125 26.25ZM13.125 15C15.1875 15 16.875 16.6875 16.875 18.75C16.875 20.8125 15.1875 22.5 13.125 22.5C11.0625 22.5 9.375 20.8125 9.375 18.75C9.375 16.6875 11.0625 15 13.125 15ZM26.25 43.125C26.25 44.1562 25.4062 45 24.375 45C23.3438 45 22.5 44.1562 22.5 43.125C22.5 37.95 18.3 33.75 13.125 33.75C7.95 33.75 3.75 37.95 3.75 43.125C3.75 44.1562 2.90625 45 1.875 45C0.84375 45 0 44.1562 0 43.125C0 35.8875 5.8875 30 13.125 30C20.3625 30 26.25 35.8875 26.25 43.125ZM45 9.375V24.375C45 29.55 40.8 33.75 35.625 33.75H28.125C27.0938 33.75 26.25 32.9062 26.25 31.875C26.25 30.8438 27.0938 30 28.125 30H35.625C38.7188 30 41.25 27.4688 41.25 24.375V9.375C41.25 6.28125 38.7188 3.75 35.625 3.75H17.7375C15.7312 3.75 13.875 4.8375 12.8625 6.5625C12.3375 7.4625 11.1937 7.7625 10.2937 7.25625C9.39375 6.73125 9.09375 5.5875 9.61875 4.6875C11.3063 1.8 14.4187 0 17.7375 0H35.625C40.8 0 45 4.2 45 9.375ZM25.6313 20.475L31.1063 15H28.125C27.0938 15 26.25 14.1562 26.25 13.125C26.25 12.0938 27.0938 11.25 28.125 11.25H33.75C35.8125 11.25 37.5 12.9375 37.5 15V20.625C37.5 21.6562 36.6562 22.5 35.625 22.5C34.5938 22.5 33.75 21.6562 33.75 20.625V17.6437L28.275 23.1187C27.4125 23.9813 26.25 24.45 25.0688 24.45C24.6562 24.45 24.2437 24.3937 23.8312 24.2812C22.8375 24 22.2563 22.9688 22.5375 21.975C22.8188 20.9813 23.85 20.4 24.8625 20.6812C25.0875 20.7375 25.3875 20.7188 25.6313 20.475Z" fill="white"/>
</g>
<defs>
<clipPath id="clip0_1073_187">
<rect width="45" height="45" fill="white"/>
</clipPath>
</defs>
</svg>
