<svg width="45" height="45" viewBox="0 0 45 45" fill="none" xmlns="http://www.w3.org/2000/svg">
<g clip-path="url(#clip0_1073_185)">
<path d="M22.245 7.50189C14.4 7.63127 7.79067 14.1131 7.51129 21.9488C7.34629 26.5013 9.22504 30.8231 12.6675 33.81C14.1507 35.0981 15 37.0781 15 39.375C15 42.4763 17.5238 45 20.625 45H24.375C27.4763 45 30 42.4763 30 39.375V38.6719C30 36.8606 30.8532 35.1131 32.4038 33.7481C35.6438 30.9019 37.5 26.8031 37.5 22.5C37.5 18.4481 35.9082 14.6494 33.0188 11.8069C30.1294 8.96439 26.3007 7.41002 22.245 7.50189ZM26.25 39.375C26.25 40.41 25.41 41.25 24.375 41.25H20.625C19.59 41.25 18.75 40.41 18.75 39.2456C18.75 38.6531 18.6919 38.0719 18.6057 37.5H26.3269C26.28 37.8863 26.25 38.2781 26.25 38.6719V39.375ZM29.9288 30.9319C28.9707 31.7738 28.1982 32.7263 27.6038 33.75H24.375V25.905C26.5519 25.1288 28.125 23.0663 28.125 20.625C28.125 19.5881 27.2869 18.75 26.25 18.75C25.2132 18.75 24.375 19.5881 24.375 20.625C24.375 21.6619 23.535 22.5 22.5 22.5C21.465 22.5 20.625 21.66 20.625 20.625C20.625 19.59 19.7869 18.75 18.75 18.75C17.7132 18.75 16.875 19.5881 16.875 20.625C16.875 23.0663 18.4482 25.1288 20.625 25.905V33.75H17.3513C16.77 32.7038 16.0257 31.7625 15.1238 30.9788C12.5438 28.7381 11.1338 25.4963 11.2575 22.0838C11.4675 16.2075 16.425 11.3475 22.3088 11.2519C22.3725 11.2519 22.4344 11.2519 22.5 11.2519C25.4738 11.2519 28.2694 12.3938 30.39 14.4825C32.5575 16.6144 33.7519 19.4625 33.7519 22.5019C33.7519 25.7269 32.3588 28.7981 29.9307 30.9338L29.9288 30.9319ZM31.4719 4.63876L33.7875 0.870015C34.3275 -0.0149851 35.4825 -0.29061 36.3657 0.255015C37.2488 0.79689 37.5244 1.95002 36.9807 2.83314L34.665 6.60189C34.3125 7.17939 33.6957 7.49626 33.0657 7.49626C32.73 7.49626 32.3925 7.40626 32.0869 7.21876C31.2038 6.67689 30.9282 5.52189 31.4719 4.63876ZM43.8994 12.4163L40.275 14.0513C40.0257 14.1656 39.7632 14.2181 39.5063 14.2181C38.79 14.2181 38.1094 13.8075 37.7963 13.1138C37.3688 12.1706 37.7888 11.0588 38.7338 10.635L42.3582 9.00002C43.3069 8.57064 44.4132 8.99439 44.8369 9.93752C45.2644 10.8806 44.8444 11.9925 43.8994 12.4163ZM7.86379 2.83126C7.32192 1.94814 7.59942 0.79314 8.48254 0.25314C9.36942 -0.28686 10.5207 -0.00936007 11.0607 0.87189L13.3707 4.64251C13.9125 5.52564 13.635 6.68064 12.7519 7.22064C12.4463 7.40814 12.1069 7.49626 11.775 7.49626C11.1432 7.49626 10.5282 7.17751 10.1738 6.60001L7.86379 2.82939V2.83126ZM6.95817 13.2394C6.63754 13.9125 5.96629 14.3044 5.26692 14.3044C4.99504 14.3044 4.71942 14.2463 4.45879 14.1188L1.08754 12.5044C0.153791 12.0581 -0.241834 10.9388 0.206291 10.005C0.650666 9.06939 1.77567 8.67002 2.70567 9.12377L6.07692 10.7381C7.01067 11.1844 7.40629 12.3056 6.95817 13.2394Z" fill="white"/>
</g>
<defs>
<clipPath id="clip0_1073_185">
<rect width="45" height="45" fill="white"/>
</clipPath>
</defs>
</svg>
