<svg xmlns="http://www.w3.org/2000/svg" width="209.938" height="64.569" viewBox="0 0 209.938 64.569">
  <g id="Group_10" data-name="Group 10" transform="translate(-686.019 -315.86)">
    <g id="Group_1" data-name="Group 1" transform="translate(780.148 361.534)">
      <path id="Path_1" data-name="Path 1" d="M725.616,601.21l-2.356,6.325h-1.1L719.8,601.21l-.17,7.369h-.716l.242-8.085H720.2l2.514,6.6,2.5-6.6h1.044l.242,8.085h-.717Z" transform="translate(-718.916 -600.154)" fill="#fff"/>
      <path id="Path_2" data-name="Path 2" d="M738.576,609.517h-.607l-.049-.462a3.726,3.726,0,0,1-2,.583c-1.045,0-1.53-.6-1.53-1.651,0-1.25.57-1.638,1.736-1.638h1.748V605.2c0-.814-.426-1.08-1.4-1.08a9.166,9.166,0,0,0-1.748.194l-.109-.6a7.562,7.562,0,0,1,1.821-.23c1.529,0,2.136.606,2.136,1.711Zm-.7-2.537h-1.724c-.813,0-1.056.243-1.056,1.019,0,.692.145,1.008.971,1.008a3.33,3.33,0,0,0,1.809-.607Z" transform="translate(-723.768 -601.092)" fill="#fff"/>
      <path id="Path_3" data-name="Path 3" d="M747.659,604.175a13.16,13.16,0,0,0-1.869,1.093v4.249h-.7V603.6h.631l.037.9a9.968,9.968,0,0,1,1.82-1.019Z" transform="translate(-727.123 -601.092)" fill="#fff"/>
      <path id="Path_4" data-name="Path 4" d="M752.372,608.424V600.1l.7-.1v8.425Zm4.224-5.912-2.356,2.913,2.452,3h-.9l-2.4-3,2.331-2.913Z" transform="translate(-729.408 -599.999)" fill="#fff"/>
      <path id="Path_5" data-name="Path 5" d="M764.129,609.019a7.518,7.518,0,0,0,1.87-.279l.121.57a6.526,6.526,0,0,1-2.039.327c-1.663,0-2.2-.861-2.2-2.148v-1.857a1.933,1.933,0,0,1,2.21-2.148,1.889,1.889,0,0,1,2.149,2.148v1.141h-3.654v.741C762.588,608.569,762.953,609.019,764.129,609.019Zm-1.541-2.877h2.962v-.534c0-1-.352-1.518-1.456-1.518s-1.505.522-1.505,1.518Z" transform="translate(-732.391 -601.092)" fill="#fff"/>
      <path id="Path_6" data-name="Path 6" d="M775.306,608.781a3.629,3.629,0,0,1-1.238.23c-.935,0-1.336-.34-1.336-1.275v-4.151h-1.141v-.607h1.141v-1.4l.7-.1v1.493h1.809l-.073.607h-1.736v4.078c0,.522.073.74.68.74a3.688,3.688,0,0,0,1.056-.17Z" transform="translate(-735.436 -600.465)" fill="#fff"/>
      <path id="Path_7" data-name="Path 7" d="M780.892,601.44v-1.3h.705v1.3Zm0,7.029v-5.912h.705v5.912Z" transform="translate(-738.352 -600.043)" fill="#fff"/>
      <path id="Path_8" data-name="Path 8" d="M790.309,609.517v-4.783c0-.437-.231-.6-.643-.6a6.239,6.239,0,0,0-2.27.68v4.7h-.7V603.6h.619l.049.534a6.627,6.627,0,0,1,2.4-.655c.923,0,1.251.522,1.251,1.334v4.7Z" transform="translate(-740.171 -601.092)" fill="#fff"/>
      <path id="Path_9" data-name="Path 9" d="M799.59,607.708a3.863,3.863,0,0,1-.789-.073.985.985,0,0,0-.461.777c0,.231.133.388.534.425.74.06.91.073,1.7.134,1.08.084,1.468.583,1.468,1.408,0,1.225-.607,1.651-2.525,1.651a8.725,8.725,0,0,1-2.076-.292l.11-.559a9.678,9.678,0,0,0,1.991.243c1.6,0,1.808-.327,1.808-1.008,0-.583-.242-.813-.947-.862-.752-.049-.813-.049-1.6-.11-.874-.073-1.166-.522-1.166-1.043a1.223,1.223,0,0,1,.559-1,1.86,1.86,0,0,1-.874-1.772v-.073c0-1.335.594-2.075,2.27-2.075a3.371,3.371,0,0,1,1,.121h1.627v.51l-.741.06a2.2,2.2,0,0,1,.389,1.384v.073C801.859,606.967,801.143,607.708,799.59,607.708Zm0-3.618c-1.178,0-1.59.365-1.59,1.445v.122c0,1.117.509,1.444,1.59,1.444s1.59-.376,1.59-1.444v-.122C801.18,604.467,800.768,604.09,799.59,604.09Z" transform="translate(-743.504 -601.092)" fill="#fff"/>
      <path id="Path_10" data-name="Path 10" d="M816.823,608.645c-2.076,0-2.828-1.019-2.828-2.4v-3.521c0-1.384.752-2.4,2.828-2.4s2.828,1.019,2.828,2.4v3.521C819.651,607.625,818.9,608.645,816.823,608.645Zm2.112-2.428v-3.471c0-1.154-.559-1.785-2.112-1.785s-2.113.631-2.113,1.785v3.471c0,1.153.559,1.785,2.113,1.785S818.935,607.37,818.935,606.217Z" transform="translate(-748.733 -600.099)" fill="#fff"/>
      <path id="Path_11" data-name="Path 11" d="M830.449,609.517v-4.783c0-.437-.231-.6-.643-.6a6.24,6.24,0,0,0-2.27.68v4.7h-.7V603.6h.619l.048.534a6.627,6.627,0,0,1,2.4-.655c.922,0,1.251.522,1.251,1.334v4.7Z" transform="translate(-752.76 -601.092)" fill="#fff"/>
      <path id="Path_12" data-name="Path 12" d="M837.814,608.424V600.1l.7-.1v8.425Z" transform="translate(-756.203 -599.999)" fill="#fff"/>
      <path id="Path_13" data-name="Path 13" d="M843.612,601.44v-1.3h.705v1.3Zm0,7.029v-5.912h.705v5.912Z" transform="translate(-758.022 -600.043)" fill="#fff"/>
      <path id="Path_14" data-name="Path 14" d="M853.03,609.517v-4.783c0-.437-.23-.6-.643-.6a6.237,6.237,0,0,0-2.27.68v4.7h-.7V603.6h.619l.048.534a6.625,6.625,0,0,1,2.4-.655c.922,0,1.25.522,1.25,1.334v4.7Z" transform="translate(-759.841 -601.092)" fill="#fff"/>
      <path id="Path_15" data-name="Path 15" d="M862.2,609.019a7.515,7.515,0,0,0,1.868-.279l.122.57a6.53,6.53,0,0,1-2.039.327c-1.663,0-2.2-.861-2.2-2.148v-1.857a1.934,1.934,0,0,1,2.21-2.148,1.888,1.888,0,0,1,2.148,2.148v1.141h-3.654v.741C860.655,608.569,861.02,609.019,862.2,609.019Zm-1.543-2.877h2.962v-.534c0-1-.351-1.518-1.456-1.518s-1.505.522-1.505,1.518Z" transform="translate(-763.146 -601.092)" fill="#fff"/>
    </g>
    <g id="Group_4" data-name="Group 4" transform="translate(765.502 323.817)">
      <path id="Path_16" data-name="Path 16" d="M697.578,583.94h9.462v-7.6l-9.462-12.585Z" transform="translate(-697.578 -550.915)" fill="#fff"/>
      <path id="Path_17" data-name="Path 17" d="M792.695,567.659l9.364,10.416H812.8l-14.125-15.823Zm-7.189,10.416v-8.721l26.822-24.3H801.469l-15.963,14.737V545.051h-9.138v33.024Z" transform="translate(-722.287 -545.051)" fill="#fff" fill-rule="evenodd"/>
      <path id="Path_18" data-name="Path 18" d="M719.1,567.039a19.344,19.344,0,0,0,10.269-3.192,9.579,9.579,0,0,0,4.372-7.9c0-3.078-1.4-5.617-4.155-7.723a15.876,15.876,0,0,0-9.91-3.175h-22.1l4.969,6.635h16.9c2.908,0,5.164,1.848,5.164,4.357,0,2.8-2.374,4.6-5.935,4.6h-14.56q6.543,8.719,13.088,17.436h10.19Z" transform="translate(-697.578 -545.051)" fill="#fff" fill-rule="evenodd"/>
      <g id="Group_2" data-name="Group 2" transform="translate(40.186 0)">
        <path id="Path_19" data-name="Path 19" d="M762.614,545.051l4.684,6.238v-6.238Z" transform="translate(-758.16 -545.051)" fill="#fff"/>
        <path id="Path_20" data-name="Path 20" d="M756.125,545.051v33.025h9.138v-8.721h0v-12.13Z" transform="translate(-756.125 -545.051)" fill="#fff"/>
      </g>
      <g id="Group_3" data-name="Group 3" transform="translate(90.934 0)">
        <path id="Path_21" data-name="Path 21" d="M848.015,556.276l-8.047-11.226h-9.91l15.193,20.7v12.32h9.136v-12.32l0-.216Z" transform="translate(-830.058 -545.051)" fill="#fff" fill-rule="evenodd"/>
        <path id="Path_22" data-name="Path 22" d="M866.766,562.658l12.84-17.607h-9.912L862.026,555.8Z" transform="translate(-840.084 -545.051)" fill="#fff" fill-rule="evenodd"/>
      </g>
    </g>
    <g id="Group_9" data-name="Group 9" transform="translate(686.019 315.86)">
      <path id="Path_23" data-name="Path 23" d="M747.328,326.273a48.5,48.5,0,0,1,5.734-.344,44.462,44.462,0,0,1,13.276,1.977l-9.6-9.6a8.348,8.348,0,0,0-11.806,0L732.8,330.438A46.323,46.323,0,0,1,747.328,326.273Z" transform="translate(-718.692 -315.86)" fill="#fff"/>
      <g id="Group_5" data-name="Group 5" transform="translate(0 10.668)">
        <path id="Path_24" data-name="Path 24" d="M703.221,390.534H692.185l-3.521,3.521a9.01,9.01,0,0,0-2.638,6.743,45.737,45.737,0,0,1,18.779-10.181A14.525,14.525,0,0,0,703.221,390.534Z" transform="translate(-686.019 -378.684)" fill="#fff"/>
        <path id="Path_25" data-name="Path 25" d="M854.926,384.511a46.362,46.362,0,0,1,13.065,6.792,8.993,8.993,0,0,0-2.36-4.136l-6.5-6.5Z" transform="translate(-803.991 -371.796)" fill="#fff"/>
        <path id="Path_26" data-name="Path 26" d="M733.21,357.377c4.58,0,8.46,1.458,10.416,3.9q1.725-.106,3.472-.108a56.334,56.334,0,0,1,8.545.647l7.558-7.178-1.093-1.093a44.9,44.9,0,0,0-19.873-1.973,45.658,45.658,0,0,0-15.947,4.915l-.885.884Z" transform="translate(-713.527 -351.237)" fill="#fff"/>
      </g>
      <path id="Path_27" data-name="Path 27" d="M784.659,451.79a46.7,46.7,0,0,0-11.176.965L780.34,462q1.115-.1,2.25-.169c1.287-.075,2.584-.113,3.855-.113a57.823,57.823,0,0,1,9.007.678l.43.068.354-.353Z" transform="translate(-747.108 -410.78)" fill="#fff"/>
      <path id="Path_28" data-name="Path 28" d="M732.855,462.968a28.944,28.944,0,0,0-6.663,3.926l6.291,6.291.244-.1a46.1,46.1,0,0,1,6.018-1.868Z" transform="translate(-714.078 -418.607)" fill="#fff"/>
      <g id="Group_6" data-name="Group 6" transform="translate(5.221 32.093)">
        <path id="Path_29" data-name="Path 29" d="M819.645,422.283l-1.56,1.422,10.193,9.3a25.259,25.259,0,0,1,4.948,2.513l.1.066,5.775-5.775A41.752,41.752,0,0,0,819.645,422.283Z" transform="translate(-783.481 -422.283)" fill="#fff"/>
        <path id="Path_30" data-name="Path 30" d="M770.894,430.144a13.369,13.369,0,0,1-5.388,3.351l-1.216.423,2.383,3.213a46.617,46.617,0,0,1,6.316-.926c1.223-.095,2.457-.143,3.668-.143.3,0,.593,0,.888.01Z" transform="translate(-745.908 -427.773)" fill="#fff"/>
        <path id="Path_31" data-name="Path 31" d="M711.157,436.333a36.471,36.471,0,0,0-7.824,5.064l6.467,6.468.051-.041a29.361,29.361,0,0,1,6.683-3.956Z" transform="translate(-703.333 -432.096)" fill="#fff"/>
      </g>
      <g id="Group_7" data-name="Group 7" transform="translate(0.069 21.203)">
        <path id="Path_32" data-name="Path 32" d="M789.817,392.855a8.55,8.55,0,0,1-.339,2.332l8.888-8.441a55.576,55.576,0,0,0-7.99-.575c-1.012,0-2.014.03-3.009.084A10.78,10.78,0,0,1,789.817,392.855Z" transform="translate(-756.874 -386.171)" fill="#fff"/>
        <path id="Path_33" data-name="Path 33" d="M847.394,402.167a45.766,45.766,0,0,0-13.76-7.213l-8.458,7.714a48.134,48.134,0,0,1,7.315,1.637,38.713,38.713,0,0,1,11.922,5.935l.068.051.371-.371A9.02,9.02,0,0,0,847.394,402.167Z" transform="translate(-783.282 -392.305)" fill="#fff"/>
        <path id="Path_34" data-name="Path 34" d="M697.075,402.087h6.307a12.361,12.361,0,0,0,3.113-.36l.175-.048c3.089-.871,4.27-3,4.27-5.022,0-2.063-1.257-4.237-4.57-5.042a45.437,45.437,0,0,0-20.12,10.695,8.991,8.991,0,0,0,2.576,5.278l2.152,2.152.035-.03a36.887,36.887,0,0,1,7.865-5.1Z" transform="translate(-686.249 -389.973)" fill="#fff"/>
      </g>
      <g id="Group_8" data-name="Group 8" transform="translate(18.868 53.144)">
        <path id="Path_35" data-name="Path 35" d="M748.587,493.989l6.886,6.886a9.014,9.014,0,0,0,7.4,2.586l-8.113-11.368A45.838,45.838,0,0,0,748.587,493.989Z" transform="translate(-748.587 -492.093)" fill="#fff"/>
        <path id="Path_36" data-name="Path 36" d="M795.987,529.786h0l-.012,0h0Z" transform="translate(-781.685 -518.419)" fill="#fff"/>
      </g>
      <path id="Path_37" data-name="Path 37" d="M859.517,463.638a23.461,23.461,0,0,0-3.315-1.824l2.688,2.451Z" transform="translate(-804.882 -417.801)" fill="#fff"/>
    </g>
  </g>
</svg>
