<svg width="45" height="45" viewBox="0 0 45 45" fill="none" xmlns="http://www.w3.org/2000/svg">
<g clip-path="url(#clip0_1073_191)">
<path d="M42.6994 14.4769C41.8202 13.4636 40.7335 12.6512 39.513 12.0944C38.2924 11.5377 36.9665 11.2497 35.625 11.25H28.1456L28.7756 7.42313C28.9985 6.0755 28.7296 4.69263 28.0179 3.52677C27.3061 2.3609 26.199 1.48972 24.8985 1.07212C23.5979 0.654514 22.1906 0.71832 20.9332 1.2519C19.6758 1.78547 18.6521 2.75327 18.0487 3.97876L14.46 11.25H9.375C6.88951 11.253 4.50667 12.2417 2.74916 13.9992C0.991654 15.7567 0.00297723 18.1395 0 20.625L0 30C0.00297723 32.4855 0.991654 34.8683 2.74916 36.6258C4.50667 38.3834 6.88951 39.372 9.375 39.375H34.3125C36.569 39.3658 38.7472 38.5468 40.4509 37.0672C42.1545 35.5875 43.2705 33.5455 43.5956 31.3125L44.9175 21.9375C45.1037 20.6076 45.002 19.2533 44.6193 17.9661C44.2366 16.679 43.5818 15.489 42.6994 14.4769ZM3.75 30V20.625C3.75 19.1332 4.34263 17.7024 5.39752 16.6475C6.45242 15.5926 7.88316 15 9.375 15H13.125V35.625H9.375C7.88316 35.625 6.45242 35.0324 5.39752 33.9775C4.34263 32.9226 3.75 31.4919 3.75 30ZM41.1956 21.4106L39.8719 30.7856C39.6783 32.1244 39.0107 33.3492 37.9905 34.2373C36.9702 35.1254 35.6651 35.6178 34.3125 35.625H16.875V14.5013C17.0517 14.3473 17.198 14.1616 17.3062 13.9538L21.4106 5.63813C21.5645 5.3605 21.7821 5.12335 22.0456 4.94618C22.309 4.76901 22.6106 4.65688 22.9258 4.61899C23.241 4.5811 23.5607 4.61855 23.8585 4.72824C24.1564 4.83794 24.424 5.01676 24.6394 5.25001C24.8236 5.46422 24.9583 5.71645 25.0338 5.9887C25.1093 6.26095 25.1238 6.54651 25.0763 6.82501L24.0863 12.825C24.0428 13.0931 24.0581 13.3674 24.1311 13.629C24.2041 13.8906 24.3331 14.1332 24.5091 14.3401C24.6851 14.5469 24.9039 14.713 25.1504 14.827C25.3969 14.9409 25.6653 15 25.9369 15H35.625C36.4301 14.9999 37.2259 15.1726 37.9585 15.5065C38.6912 15.8404 39.3436 16.3277 39.8717 16.9354C40.3998 17.5432 40.7913 18.2572 41.0197 19.0293C41.2481 19.8013 41.3081 20.6134 41.1956 21.4106Z" fill="white"/>
</g>
<defs>
<clipPath id="clip0_1073_191">
<rect width="45" height="45" fill="white"/>
</clipPath>
</defs>
</svg>
